<svg xmlns="http://www.w3.org/2000/svg" viewBox="0 0 100 100" width="100%" height="100%">
  <defs>
    <linearGradient id="chiliGrad" x1="0%" y1="0%" x2="100%" y2="100%">
      <stop offset="0%" stop-color="#FF5E4D"/>
      <stop offset="100%" stop-color="#D93829"/>
    </linearGradient>
    <linearGradient id="stemGrad" x1="0%" y1="0%" x2="100%" y2="100%">
      <stop offset="0%" stop-color="#34D399"/>
      <stop offset="100%" stop-color="#059669"/>
    </linearGradient>
    <filter id="softShadow" x="-10%" y="-10%" width="120%" height="120%">
      <feDropShadow dx="0" dy="4" stdDeviation="4" flood-color="#D93829" flood-opacity="0.25"/>
    </filter>
  </defs>
  
  <rect x="6" y="6" width="88" height="88" rx="26" fill="#FDF2F0" />
  
  
  <path d="M26 80 L16 90 L34 86 Z" fill="#FDF2F0" />
  
  <path d="M48 20 C48 13, 56 12, 60 16 C63 19, 58 24, 52 25 Z" fill="url(#stemGrad)" />
  
  <path d="M28 28 
           C32 28, 35 34, 44 56 
           C48 66, 52 74, 54 74 
           C56 74, 60 62, 68 40 
           C73 26, 78 24, 82 24
           C75 42, 64 68, 56 82 
           C52 89, 46 89, 42 80 
           C34 64, 24 38, 22 30 
           C22 28, 25 28, 28 28 Z" 
        fill="url(#chiliGrad)" 
        filter="url(#softShadow)" />
  
  <path d="M58 26 L66 18 C67 17, 69 18, 68 20 L62 28 Z" fill="#FF5E4D" opacity="0.9" />
  
  <path d="M31 34 C36 46, 43 62, 47 70 C46 66, 41 50, 36 38 C34 33, 32 32, 31 34 Z" fill="#FFFFFF" opacity="0.35" />
</svg>
